<svg width="27" height="30" viewBox="0 0 27 30" fill="none" xmlns="http://www.w3.org/2000/svg">
<path d="M15.6525 17.1228H24.7225C25.9803 17.1228 26.9999 16.1031 26.9999 14.8454C26.9999 13.5876 25.9803 12.5679 24.7225 12.5679H15.6525V2.15256C15.6525 0.963736 14.6888 0 13.4999 0C12.3111 0 11.3474 0.963733 11.3474 2.15256V12.5679H2.27735C1.01957 12.5679 -6.10352e-05 13.5876 -6.10352e-05 14.8454C-6.10352e-05 16.1031 1.01957 17.1228 2.27735 17.1228H11.3474V27.8474C11.3474 29.0363 12.3111 30 13.4999 30C14.6888 30 15.6525 29.0363 15.6525 27.8474V17.1228Z" fill="#AC8E68"/>
</svg>
