<svg width="30" height="31" viewBox="0 0 30 31" fill="none" xmlns="http://www.w3.org/2000/svg">
<circle cx="15" cy="15.5" r="14.5" stroke="#959595"/>
<path d="M16.0787 16.54H20.6484C21.2649 16.54 21.7648 16.0402 21.7648 15.4236C21.7648 14.8071 21.2649 14.3072 20.6484 14.3072H16.0787V9.22511C16.0787 8.6294 15.5958 8.14648 15.0001 8.14648C14.4043 8.14648 13.9214 8.6294 13.9214 9.22511V14.3072H9.35173C8.73517 14.3072 8.23535 14.8071 8.23535 15.4236C8.23535 16.0402 8.73517 16.54 9.35173 16.54H13.9214V21.7737C13.9214 22.3694 14.4043 22.8524 15.0001 22.8524C15.5958 22.8524 16.0787 22.3695 16.0787 21.7737V16.54Z" fill="#959595"/>
</svg>
