<svg width="23" height="20" viewBox="0 0 23 20" fill="none" xmlns="http://www.w3.org/2000/svg">
<path d="M1.15323 13.4832C1.79037 14.0996 3.01328 14.2435 3.95871 13.3805C4.29784 13.0825 4.96581 12.3736 6.01401 11.3154C11.1522 6.11671 14.3174 2.83929 14.8826 3.35299C15.3348 3.76395 13.5878 6.24 11.8408 8.66467C8.64479 13.0928 5.95235 16.3291 7.97682 18.3531C9.55939 19.9353 11.9641 18.4969 15.8178 15.1168C17.8833 13.2983 19.3221 11.9524 19.6817 12.3017C19.9078 12.5277 19.3632 13.4216 18.6644 14.6236C17.6778 16.3291 16.3624 18.2606 17.647 19.5449C18.541 20.4387 20.2469 20.0483 22.2303 18.086C22.6414 17.6853 22.7338 17.2024 22.3844 16.8634C22.0659 16.5449 21.6137 16.5962 21.2746 16.9045C19.99 18.1373 19.0343 18.6716 18.8802 18.4969C18.6849 18.312 19.2296 17.336 20.175 15.651C21.4801 13.3188 22.2817 11.7572 21.0793 10.5859C19.4659 9.02426 17.5751 10.6784 14.2969 13.5654C11.5119 16.0106 10.3712 16.6476 10.1143 16.3702C9.74437 15.9798 10.772 14.5928 13.8139 10.3393C17.1023 5.75711 19.0549 2.77764 17.2051 0.96941C14.7901 -1.38335 11.5428 0.352968 3.49627 8.31535C2.32475 9.46604 1.59512 10.1647 1.23544 10.5962C0.300284 11.675 0.505814 12.8668 1.15323 13.4832Z" fill="#959595"/>
</svg>
