<svg width="18" height="4" viewBox="0 0 18 4" fill="none" xmlns="http://www.w3.org/2000/svg">
<path d="M15.5625 2.9375C16.0803 2.9375 16.5 2.51777 16.5 2C16.5 1.48223 16.0803 1.0625 15.5625 1.0625C15.0447 1.0625 14.625 1.48223 14.625 2C14.625 2.51777 15.0447 2.9375 15.5625 2.9375Z" fill="#959595"/>
<path d="M9 2.9375C9.51777 2.9375 9.9375 2.51777 9.9375 2C9.9375 1.48223 9.51777 1.0625 9 1.0625C8.48223 1.0625 8.0625 1.48223 8.0625 2C8.0625 2.51777 8.48223 2.9375 9 2.9375Z" fill="#959595"/>
<path d="M2.4375 2.9375C2.95527 2.9375 3.375 2.51777 3.375 2C3.375 1.48223 2.95527 1.0625 2.4375 1.0625C1.91973 1.0625 1.5 1.48223 1.5 2C1.5 2.51777 1.91973 2.9375 2.4375 2.9375Z" fill="#959595"/>
<path d="M15.5625 2.9375C16.0803 2.9375 16.5 2.51777 16.5 2C16.5 1.48223 16.0803 1.0625 15.5625 1.0625C15.0447 1.0625 14.625 1.48223 14.625 2C14.625 2.51777 15.0447 2.9375 15.5625 2.9375Z" stroke="#959595" stroke-width="1.5" stroke-linecap="round" stroke-linejoin="round"/>
<path d="M9 2.9375C9.51777 2.9375 9.9375 2.51777 9.9375 2C9.9375 1.48223 9.51777 1.0625 9 1.0625C8.48223 1.0625 8.0625 1.48223 8.0625 2C8.0625 2.51777 8.48223 2.9375 9 2.9375Z" stroke="#959595" stroke-width="1.5" stroke-linecap="round" stroke-linejoin="round"/>
<path d="M2.4375 2.9375C2.95527 2.9375 3.375 2.51777 3.375 2C3.375 1.48223 2.95527 1.0625 2.4375 1.0625C1.91973 1.0625 1.5 1.48223 1.5 2C1.5 2.51777 1.91973 2.9375 2.4375 2.9375Z" stroke="#959595" stroke-width="1.5" stroke-linecap="round" stroke-linejoin="round"/>
</svg>
