<svg width="18" height="18" viewBox="0 0 18 18" fill="none" xmlns="http://www.w3.org/2000/svg">
<path d="M16.5 15.0809V9.28351C16.5 8.88017 16.4167 8.48106 16.2551 8.11064C16.0935 7.74022 15.8571 7.40629 15.5602 7.12929L10.0305 1.96748C9.752 1.70741 9.38327 1.5625 9 1.5625C8.61673 1.5625 8.248 1.70741 7.9695 1.96748L2.43975 7.12929C2.14292 7.40629 1.90646 7.74022 1.74487 8.11064C1.58328 8.48106 1.49996 8.88017 1.5 9.28351V15.0809C1.5 15.4739 1.65804 15.8507 1.93934 16.1286C2.22064 16.4064 2.60218 16.5625 3 16.5625H15C15.3978 16.5625 15.7794 16.4064 16.0607 16.1286C16.342 15.8507 16.5 15.4739 16.5 15.0809Z" stroke="#AC8E68" stroke-width="2" stroke-linecap="round" stroke-linejoin="round"/>
</svg>
