<svg width="20" height="20" viewBox="0 0 20 20" fill="none" xmlns="http://www.w3.org/2000/svg">
<path d="M17.7833 10.5104V9.48291L19.1076 8.35472C19.3517 8.14523 19.5119 7.85846 19.5599 7.5451C19.6078 7.23174 19.5405 6.91196 19.3697 6.64228L17.742 3.9561C17.621 3.75213 17.4471 3.58271 17.2377 3.46484C17.0282 3.34698 16.7906 3.2848 16.5487 3.28456C16.3988 3.28344 16.2497 3.30612 16.1073 3.35172L14.4313 3.90238C14.1419 3.71516 13.8401 3.5469 13.5277 3.39872L13.176 1.70643C13.1129 1.39726 12.9402 1.11953 12.688 0.921869C12.4358 0.724208 12.1202 0.619207 11.7965 0.625247H8.56861C8.24492 0.619207 7.92936 0.724208 7.67717 0.921869C7.42499 1.11953 7.25223 1.39726 7.18916 1.70643L6.8374 3.39872C6.52284 3.54687 6.2187 3.71512 5.92697 3.90238L4.28542 3.32485C4.14147 3.28834 3.9924 3.27473 3.84399 3.28456C3.60209 3.2848 3.3645 3.34698 3.15507 3.46484C2.94564 3.58271 2.77172 3.75213 2.65077 3.9561L1.02302 6.64228C0.862026 6.91156 0.802203 7.22696 0.853793 7.53447C0.905382 7.84197 1.06518 8.12245 1.3058 8.32786L2.60939 9.48963V10.5171L1.3058 11.6453C1.05838 11.8521 0.894215 12.1376 0.842446 12.4511C0.790678 12.7646 0.854652 13.0858 1.02302 13.3577L2.65077 16.0439C2.77172 16.2479 2.94564 16.4173 3.15507 16.5352C3.3645 16.653 3.60209 16.7152 3.84399 16.7154C3.99391 16.7166 4.143 16.6939 4.28542 16.6483L5.96145 16.0976C6.25082 16.2848 6.55267 16.4531 6.86499 16.6013L7.21675 18.2936C7.27982 18.6027 7.45257 18.8805 7.70476 19.0781C7.95695 19.2758 8.27251 19.3808 8.5962 19.3748H11.8517C12.1754 19.3808 12.491 19.2758 12.7431 19.0781C12.9953 18.8805 13.1681 18.6027 13.2312 18.2936L13.5829 16.6013C13.8975 16.4531 14.2016 16.2849 14.4934 16.0976L16.1625 16.6483C16.3049 16.6939 16.454 16.7166 16.6039 16.7154C16.8458 16.7152 17.0834 16.653 17.2928 16.5352C17.5023 16.4173 17.6762 16.2479 17.7971 16.0439L19.3697 13.3577C19.5307 13.0884 19.5905 12.773 19.5389 12.4655C19.4873 12.158 19.3276 11.8776 19.0869 11.6721L17.7833 10.5104ZM16.5487 15.3724L14.183 14.5934C13.6292 15.0501 12.9962 15.4071 12.3138 15.6477L11.8241 18.0585H8.56861L8.07891 15.6745C7.40189 15.4271 6.77237 15.0707 6.21665 14.6202L3.84399 15.3724L2.21624 12.6862L4.0923 11.0745C3.96476 10.3793 3.96476 9.66768 4.0923 8.97254L2.21624 7.31382L3.84399 4.62765L6.20975 5.40664C6.76356 4.94992 7.3965 4.5929 8.07891 4.35232L8.56861 1.94147H11.8241L12.3138 4.32545C12.9908 4.57287 13.6204 4.92927 14.1761 5.37978L16.5487 4.62765L18.1765 7.31382L16.3004 8.92553C16.428 9.62067 16.428 10.3323 16.3004 11.0275L18.1765 12.6862L16.5487 15.3724Z" fill="#959595"/>
<path d="M10.1999 13.7498C9.4582 13.7498 8.73319 13.5299 8.11652 13.1178C7.49985 12.7058 7.01922 12.1201 6.7354 11.4349C6.45158 10.7497 6.37732 9.99575 6.52201 9.26834C6.6667 8.54093 7.02384 7.87276 7.54827 7.34832C8.07271 6.82389 8.74088 6.46675 9.46829 6.32205C10.1957 6.17736 10.9497 6.25162 11.6349 6.53545C12.3201 6.81927 12.9057 7.2999 13.3178 7.91657C13.7298 8.53324 13.9498 9.25824 13.9498 9.99991C13.9548 10.4937 13.8612 10.9836 13.6745 11.4408C13.4879 11.8981 13.2118 12.3134 12.8626 12.6627C12.5134 13.0119 12.098 13.2879 11.6408 13.4746C11.1836 13.6613 10.6937 13.7548 10.1999 13.7498ZM10.1999 7.49997C9.86946 7.49227 9.54093 7.55167 9.23414 7.67458C8.92736 7.79749 8.64869 7.98135 8.415 8.21505C8.18131 8.44874 7.99744 8.7274 7.87453 9.03419C7.75163 9.34098 7.69222 9.6695 7.69992 9.99991C7.69222 10.3303 7.75163 10.6588 7.87453 10.9656C7.99744 11.2724 8.18131 11.5511 8.415 11.7848C8.64869 12.0185 8.92736 12.2023 9.23414 12.3252C9.54093 12.4481 9.86946 12.5075 10.1999 12.4998C10.5303 12.5075 10.8588 12.4481 11.1656 12.3252C11.4724 12.2023 11.751 12.0185 11.9847 11.7848C12.2184 11.5511 12.4023 11.2724 12.5252 10.9656C12.6481 10.6588 12.7075 10.3303 12.6998 9.99991C12.7075 9.6695 12.6481 9.34098 12.5252 9.03419C12.4023 8.7274 12.2184 8.44874 11.9847 8.21505C11.751 7.98135 11.4724 7.79749 11.1656 7.67458C10.8588 7.55167 10.5303 7.49227 10.1999 7.49997Z" fill="#959595"/>
</svg>
