<svg width="20" height="19" viewBox="0 0 20 19" fill="none" xmlns="http://www.w3.org/2000/svg">
<path d="M3.91638 13.689C4.912 15.1864 6.34172 16.3177 7.99012 16.9124C9.63852 17.5071 11.4163 17.5331 13.0556 16.9864C14.6949 16.4396 16.1069 15.3499 17.0789 13.8812C18.0509 12.4125 18.5301 10.6446 18.4445 8.8437C18.3589 7.04283 17.713 5.30659 16.6041 3.8966C15.4953 2.48661 13.9835 1.47925 12.2967 1.0263C10.6098 0.573349 8.83928 0.69935 7.25178 1.38531C4.72924 2.47531 3.35509 5.00561 1.68497 7.10643M1.68497 7.10643L0.81662 2.43747M1.68497 7.10643L6.44126 6.18765" stroke="#959595" stroke-width="1.5" stroke-linecap="round" stroke-linejoin="round"/>
</svg>
